<svg width="21" height="14" viewBox="0 0 21 14" fill="none" xmlns="http://www.w3.org/2000/svg">
<path d="M8.59673 7.93549C7.32045 7.93549 6.28223 6.74848 6.28223 5.29034C6.28223 3.83221 7.32045 2.6452 8.59673 2.6452C9.87301 2.6452 10.9112 3.83221 10.9112 5.29034C10.9112 6.74848 9.87301 7.93549 8.59673 7.93549ZM8.59673 3.30648C7.68415 3.30648 6.94351 4.19591 6.94351 5.29034C6.94351 6.38477 7.68415 7.2742 8.59673 7.2742C9.50931 7.2742 10.2499 6.38477 10.2499 5.29034C10.2499 4.19591 9.50931 3.30648 8.59673 3.30648Z" fill="white"/>
<path d="M15.5402 10.5806H1.65322C1.50323 10.5818 1.35391 10.5606 1.21016 10.5178C0.862519 10.4211 0.556068 10.2133 0.337567 9.92617C0.119065 9.63901 0.000512094 9.28825 0 8.92742V1.65326C0 1.2148 0.174178 0.7943 0.484216 0.484262C0.794254 0.174223 1.21476 4.56041e-05 1.65322 4.56041e-05H15.5402C15.6902 -0.00111969 15.8396 0.020053 15.9833 0.0628677C16.3309 0.159571 16.6374 0.367356 16.8559 0.654512C17.0744 0.941669 17.1929 1.29243 17.1935 1.65326V8.92742C17.1935 9.36588 17.0193 9.78638 16.7092 10.0964C16.3992 10.4065 15.9787 10.5806 15.5402 10.5806ZM1.65322 0.661333C1.39014 0.661333 1.13784 0.765839 0.951817 0.951862C0.765794 1.13789 0.661287 1.39019 0.661287 1.65326V8.92742C0.662107 9.14375 0.733628 9.35389 0.864952 9.5258C0.996276 9.69771 1.1802 9.82198 1.3887 9.87967C1.47446 9.90577 1.56358 9.91914 1.65322 9.91935H15.5402C15.8033 9.91935 16.0556 9.81484 16.2416 9.62882C16.4277 9.4428 16.5322 9.19049 16.5322 8.92742V1.65326C16.5314 1.43693 16.4598 1.2268 16.3285 1.05488C16.1972 0.882967 16.0133 0.758697 15.8048 0.70101C15.719 0.674911 15.6299 0.661543 15.5402 0.661333H1.65322Z" fill="white"/>
<path d="M17.1933 12.2339H3.30629C3.15631 12.235 3.00698 12.2139 2.86323 12.171C2.5156 12.0743 2.20914 11.8666 1.99064 11.5794C1.77214 11.2922 1.65359 10.9415 1.65308 10.5806V10.25C1.65308 10.1623 1.68791 10.0782 1.74992 10.0162C1.81193 9.9542 1.89603 9.91936 1.98372 9.91936H15.5401C15.8032 9.91936 16.0555 9.81485 16.2415 9.62883C16.4275 9.44281 16.532 9.19051 16.532 8.92743V1.98392C16.532 1.89623 16.5669 1.81213 16.6289 1.75012C16.6909 1.68811 16.775 1.65327 16.8627 1.65327H17.1933C17.3433 1.65211 17.4926 1.67328 17.6364 1.7161C17.984 1.8128 18.2905 2.02058 18.509 2.30774C18.7275 2.5949 18.846 2.94566 18.8465 3.30649V10.5806C18.8465 10.7978 18.8038 11.0127 18.7207 11.2133C18.6376 11.4139 18.5158 11.5961 18.3623 11.7496C18.2088 11.9032 18.0266 12.0249 17.826 12.108C17.6254 12.1911 17.4104 12.2339 17.1933 12.2339ZM2.31436 10.5806C2.31518 10.797 2.3867 11.0071 2.51803 11.179C2.64935 11.3509 2.83328 11.4752 3.04178 11.5329C3.12753 11.559 3.21666 11.5724 3.30629 11.5726H17.1933C17.4564 11.5726 17.7087 11.4681 17.8947 11.282C18.0807 11.096 18.1852 10.8437 18.1852 10.5806V3.30649C18.1844 3.09016 18.1129 2.88003 17.9816 2.70811C17.8503 2.5362 17.6663 2.41193 17.4578 2.35424C17.3721 2.32814 17.283 2.31477 17.1933 2.31456V8.92743C17.1933 9.36589 17.0191 9.78639 16.7091 10.0964C16.3991 10.4065 15.9786 10.5806 15.5401 10.5806H2.31436Z" fill="white"/>
<path d="M18.8469 13.8871H4.95986C4.80987 13.8883 4.66055 13.8671 4.5168 13.8243C4.16916 13.7276 3.86271 13.5198 3.64421 13.2326C3.42571 12.9455 3.30715 12.5947 3.30664 12.2339V11.9032C3.30664 11.8155 3.34148 11.7314 3.40348 11.6694C3.46549 11.6074 3.54959 11.5726 3.63728 11.5726H17.1937C17.4567 11.5726 17.709 11.4681 17.8951 11.2821C18.0811 11.096 18.1856 10.8437 18.1856 10.5807V3.63715C18.1856 3.54946 18.2204 3.46536 18.2824 3.40335C18.3444 3.34134 18.4285 3.30651 18.5162 3.30651H18.8469C18.9969 3.30534 19.1462 3.32651 19.2899 3.36933C19.6376 3.46603 19.944 3.67382 20.1625 3.96097C20.381 4.24813 20.4996 4.59889 20.5001 4.95972V12.2339C20.5001 12.6723 20.3259 13.0928 20.0159 13.4029C19.7058 13.7129 19.2853 13.8871 18.8469 13.8871ZM3.96793 12.2339C3.96875 12.4502 4.04027 12.6603 4.17159 12.8323C4.30292 13.0042 4.48684 13.1284 4.69534 13.1861C4.7811 13.2122 4.87022 13.2256 4.95986 13.2258H18.8469C19.11 13.2258 19.3623 13.1213 19.5483 12.9353C19.7343 12.7493 19.8388 12.497 19.8388 12.2339V4.95972C19.838 4.74339 19.7665 4.53326 19.6351 4.36134C19.5038 4.18943 19.3199 4.06516 19.1114 4.00747C19.0256 3.98137 18.9365 3.968 18.8469 3.96779V10.5807C18.8469 10.7978 18.8041 11.0127 18.721 11.2133C18.638 11.4139 18.5162 11.5961 18.3627 11.7497C18.2092 11.9032 18.0269 12.025 17.8263 12.108C17.6257 12.1911 17.4108 12.2339 17.1937 12.2339H3.96793Z" fill="white"/>
<path d="M14.2176 9.25804H2.97573C2.88803 9.25804 2.80393 9.2232 2.74193 9.16119C2.67992 9.09918 2.64508 9.01508 2.64508 8.92739C2.64508 8.66432 2.54058 8.41201 2.35455 8.22599C2.16853 8.03997 1.91623 7.93546 1.65315 7.93546C1.56546 7.93546 1.48136 7.90063 1.41935 7.83862C1.35735 7.77661 1.32251 7.69251 1.32251 7.60482V2.97581C1.32251 2.88812 1.35735 2.80402 1.41935 2.74201C1.48136 2.68 1.56546 2.64517 1.65315 2.64517C1.91623 2.64517 2.16853 2.54066 2.35455 2.35464C2.54058 2.16861 2.64508 1.91631 2.64508 1.65324C2.64508 1.56555 2.67992 1.48144 2.74193 1.41944C2.80393 1.35743 2.88803 1.32259 2.97573 1.32259H14.2176C14.3053 1.32259 14.3894 1.35743 14.4514 1.41944C14.5134 1.48144 14.5482 1.56555 14.5482 1.65324C14.5482 1.91631 14.6528 2.16861 14.8388 2.35464C15.0248 2.54066 15.2771 2.64517 15.5402 2.64517C15.6279 2.64517 15.712 2.68 15.774 2.74201C15.836 2.80402 15.8708 2.88812 15.8708 2.97581V7.60482C15.8708 7.69251 15.836 7.77661 15.774 7.83862C15.712 7.90063 15.6279 7.93546 15.5402 7.93546C15.2771 7.93546 15.0248 8.03997 14.8388 8.22599C14.6528 8.41201 14.5482 8.66432 14.5482 8.92739C14.5482 9.01508 14.5134 9.09918 14.4514 9.16119C14.3894 9.2232 14.3053 9.25804 14.2176 9.25804ZM3.27331 8.59675H13.92C13.9848 8.27904 14.1416 7.98739 14.3709 7.75811C14.6002 7.52883 14.8918 7.37203 15.2095 7.30724V3.27339C14.8918 3.20859 14.6002 3.0518 14.3709 2.82252C14.1416 2.59324 13.9848 2.30159 13.92 1.98388H3.27331C3.20851 2.30159 3.05172 2.59324 2.82243 2.82252C2.59315 3.0518 2.30151 3.20859 1.9838 3.27339V7.30724C2.30151 7.37203 2.59315 7.52883 2.82243 7.75811C3.05172 7.98739 3.20851 8.27904 3.27331 8.59675Z" fill="white"/>
</svg>
