<svg width="6" height="6" viewBox="0 0 6 6" fill="none" xmlns="http://www.w3.org/2000/svg">
<path d="M0.548374 5.00716C0.370873 5.2187 0.398465 5.53407 0.610003 5.71157C0.82154 5.88908 1.13692 5.86148 1.31442 5.64995L0.548374 5.00716ZM5.4811 0.456463C5.45703 0.181371 5.21451 -0.022124 4.93942 0.00194357L0.456545 0.394144C0.181453 0.418212 -0.0220421 0.660728 0.00202525 0.935819C0.0260926 1.21091 0.268609 1.41441 0.5437 1.39034L4.52848 1.04172L4.8771 5.02649C4.90117 5.30159 5.14369 5.50508 5.41878 5.48101C5.69387 5.45695 5.89736 5.21443 5.8733 4.93934L5.4811 0.456463ZM1.31442 5.64995L5.36602 0.821435L4.59998 0.178647L0.548374 5.00716L1.31442 5.64995Z" fill="#12DD00"/>
</svg>
