<svg width="8" height="8" viewBox="0 0 8 8" fill="none" xmlns="http://www.w3.org/2000/svg">
<mask id="path-1-inside-1_804_362" fill="white">
<path fill-rule="evenodd" clip-rule="evenodd" d="M7.6974 3.99273C7.69913 3.94537 7.7 3.89778 7.7 3.85C7.7 3.6153 7.679 3.3855 7.63877 3.16239H3.07937L7.6974 3.99273ZM7.68783 4.15832C7.68529 4.19038 7.68236 4.22234 7.67904 4.25418H0.0209625C0.00710402 4.12135 0 3.9865 0 3.85C0 1.7237 1.7237 0 3.85 0C5.68328 0 7.21728 1.28137 7.60526 2.99735H2.15847L2.14382 3.16141L7.68783 4.15832ZM0.0417881 4.41922H7.65821C7.3831 6.2756 5.78289 7.7 3.85 7.7C2.43615 7.7 1.20029 6.93788 0.530848 5.80204H5.33621L5.35378 5.63993L0.0457067 4.44506C0.044372 4.43646 0.0430658 4.42784 0.0417881 4.41922ZM0.0770856 4.62035C0.150196 4.98035 0.273538 5.3221 0.439476 5.63797H4.59695L0.0770856 4.62035ZM5.35378 5.63993L5.33621 5.72V5.71805L5.35378 5.63993Z"/>
</mask>
<path d="M7.6974 3.99273L7.60007 4.53405L8.22395 4.64622L8.24704 4.01276L7.6974 3.99273ZM7.63877 3.16239L8.18005 3.0648L8.09848 2.61239H7.63877V3.16239ZM3.07937 3.16239V2.61239L2.98204 3.70371L3.07937 3.16239ZM7.68783 4.15832L8.23612 4.20176L8.27547 3.70516L7.78517 3.617L7.68783 4.15832ZM7.67904 4.25418V4.80418H8.17464L8.22607 4.31126L7.67904 4.25418ZM0.0209625 4.25418L-0.526069 4.31125L-0.474642 4.80418H0.0209625V4.25418ZM7.60526 2.99735V3.54735H8.29349L8.14172 2.87606L7.60526 2.99735ZM2.15847 2.99735V2.44735H1.65539L1.61065 2.94844L2.15847 2.99735ZM2.14382 3.16141L1.596 3.1125L1.55125 3.61368L2.04649 3.70273L2.14382 3.16141ZM7.65821 4.41922L8.20227 4.49985L8.29573 3.86922H7.65821V4.41922ZM0.0417881 4.41922V3.86922H-0.595729L-0.50227 4.49985L0.0417881 4.41922ZM0.530848 5.80204V5.25204H-0.431733L0.0570218 6.0813L0.530848 5.80204ZM5.33621 5.80204V6.35204H5.82979L5.883 5.86133L5.33621 5.80204ZM5.35378 5.63993L5.90058 5.69922L5.9535 5.21116L5.47457 5.10335L5.35378 5.63993ZM0.0457067 4.44506L-0.49779 4.52939L-0.440381 4.8994L-0.0750779 4.98163L0.0457067 4.44506ZM0.439476 5.63797L-0.0474263 5.89376L0.107134 6.18797H0.439476V5.63797ZM0.0770856 4.62035L0.197891 4.08378L-0.631013 3.89716L-0.461911 4.72982L0.0770856 4.62035ZM4.59695 5.63797V6.18797L4.71775 5.1014L4.59695 5.63797ZM5.33621 5.72H4.78621L5.87342 5.83793L5.33621 5.72ZM5.33621 5.71805L4.79962 5.59732L4.78621 5.65694V5.71805H5.33621ZM7.7 3.85H7.15C7.15 3.8911 7.14925 3.93201 7.14777 3.9727L7.6974 3.99273L8.24704 4.01276C8.24901 3.95873 8.25 3.90447 8.25 3.85H7.7ZM7.63877 3.16239L7.0975 3.25997C7.13195 3.45103 7.15 3.64817 7.15 3.85H7.7H8.25C8.25 3.58242 8.22605 3.31997 8.18005 3.0648L7.63877 3.16239ZM7.63877 3.16239V2.61239H3.07937V3.16239V3.71239H7.63877V3.16239ZM3.07937 3.16239L2.98204 3.70371L7.60007 4.53405L7.6974 3.99273L7.79473 3.45141L3.1767 2.62107L3.07937 3.16239ZM7.68783 4.15832L7.13955 4.11487C7.13737 4.14239 7.13486 4.1698 7.13201 4.19711L7.67904 4.25418L8.22607 4.31126C8.22986 4.27488 8.23321 4.23838 8.23612 4.20176L7.68783 4.15832ZM0.0209625 4.25418V4.80418H7.67904V4.25418V3.70418H0.0209625V4.25418ZM0.0209625 4.25418L0.567994 4.19711C0.55611 4.0832 0.55 3.96741 0.55 3.85H0H-0.55C-0.55 4.0056 -0.541902 4.15949 -0.526069 4.31125L0.0209625 4.25418ZM0 3.85H0.55C0.55 2.02746 2.02746 0.55 3.85 0.55V0V-0.55C1.41995 -0.55 -0.55 1.41995 -0.55 3.85H0ZM3.85 0V0.55C5.42069 0.55 6.73627 1.64789 7.0688 3.11864L7.60526 2.99735L8.14172 2.87606C7.6983 0.914847 5.94587 -0.55 3.85 -0.55V0ZM2.15847 2.99735V3.54735H7.60526V2.99735V2.44735H2.15847V2.99735ZM2.14382 3.16141L2.69164 3.21032L2.70629 3.04626L2.15847 2.99735L1.61065 2.94844L1.596 3.1125L2.14382 3.16141ZM7.68783 4.15832L7.78517 3.617L2.24116 2.62009L2.14382 3.16141L2.04649 3.70273L7.5905 4.69964L7.68783 4.15832ZM7.65821 4.41922V3.86922H0.0417881V4.41922V4.96922H7.65821V4.41922ZM7.65821 4.41922L7.11415 4.3386C6.87842 5.92928 5.50628 7.15 3.85 7.15V7.7V8.25C6.05951 8.25 7.88778 6.62193 8.20227 4.49985L7.65821 4.41922ZM3.85 7.7V7.15C2.6388 7.15 1.57933 6.49779 1.00467 5.52277L0.530848 5.80204L0.0570218 6.0813C0.821255 7.37797 2.23349 8.25 3.85 8.25V7.7ZM5.33621 5.80204V5.25204H0.530848V5.80204V6.35204H5.33621V5.80204ZM5.35378 5.63993L4.80699 5.58064L4.78941 5.74274L5.33621 5.80204L5.883 5.86133L5.90058 5.69922L5.35378 5.63993ZM0.0457067 4.44506L-0.0750779 4.98163L5.233 6.1765L5.35378 5.63993L5.47457 5.10335L0.166491 3.90849L0.0457067 4.44506ZM0.0457067 4.44506L0.589204 4.36073C0.58806 4.35336 0.586941 4.34598 0.585846 4.33859L0.0417881 4.41922L-0.50227 4.49985C-0.500809 4.50971 -0.499316 4.51955 -0.49779 4.52939L0.0457067 4.44506ZM0.439476 5.63797L0.926378 5.38219C0.784242 5.11162 0.678669 4.81906 0.616083 4.51089L0.0770856 4.62035L-0.461911 4.72982C-0.378276 5.14163 -0.237167 5.53258 -0.0474263 5.89376L0.439476 5.63797ZM0.439476 5.63797V6.18797H4.59695V5.63797V5.08797H0.439476V5.63797ZM4.59695 5.63797L4.71775 5.1014L0.197891 4.08378L0.0770856 4.62035L-0.0437197 5.15692L4.47614 6.17454L4.59695 5.63797ZM5.33621 5.72L5.87342 5.83793L5.89099 5.75785L5.35378 5.63993L4.81657 5.522L4.799 5.60208L5.33621 5.72ZM5.33621 5.71805H4.78621V5.72H5.33621H5.88621V5.71805H5.33621ZM5.35378 5.63993L4.8172 5.51919L4.79962 5.59732L5.33621 5.71805L5.87279 5.83878L5.89037 5.76066L5.35378 5.63993Z" fill="white" mask="url(#path-1-inside-1_804_362)"/>
</svg>
