<svg width="15" height="15" viewBox="0 0 15 15" fill="none" xmlns="http://www.w3.org/2000/svg">
<path d="M5.65678 4.94976C5.46151 4.7545 5.14493 4.7545 4.94967 4.94976C4.75441 5.14502 4.75441 5.46161 4.94967 5.65687L5.65678 4.94976ZM9.42801 9.9281C9.70415 9.9281 9.92801 9.70425 9.92801 9.4281L9.92801 4.9281C9.92801 4.65196 9.70415 4.4281 9.42801 4.4281C9.15187 4.4281 8.92801 4.65196 8.92801 4.9281L8.92801 8.9281L4.92801 8.9281C4.65187 8.9281 4.42801 9.15196 4.42801 9.4281C4.42801 9.70425 4.65187 9.9281 4.92801 9.9281L9.42801 9.9281ZM4.94967 5.65687L9.07446 9.78166L9.78157 9.07455L5.65678 4.94976L4.94967 5.65687Z" fill="#FF3F3F"/>
</svg>
