<svg width="24" height="24" viewBox="0 0 24 24" fill="none" xmlns="http://www.w3.org/2000/svg">
<mask id="path-1-inside-1_201_267" fill="white">
<path fill-rule="evenodd" clip-rule="evenodd" d="M17.7273 12.4239C17.1341 12.7227 16.464 12.8909 15.7546 12.8909C13.3295 12.8909 11.3637 10.925 11.3637 8.50001C11.3637 7.68706 11.5846 6.92572 11.9697 6.27274H6.01818C5.45586 6.27274 5 6.72859 5 7.29092V17.9818C5 18.5442 5.45586 19 6.01818 19H16.7091C17.2714 19 17.7273 18.5442 17.7273 17.9818V12.4239Z"/>
</mask>
<path d="M17.7273 12.4239H18.7273V10.8005L17.2774 11.5308L17.7273 12.4239ZM11.9697 6.27274L12.831 6.78071L13.7203 5.27274H11.9697V6.27274ZM17.2774 11.5308C16.8206 11.7609 16.3042 11.8909 15.7546 11.8909V13.8909C16.6238 13.8909 17.4477 13.6844 18.1771 13.317L17.2774 11.5308ZM15.7546 11.8909C13.8818 11.8909 12.3637 10.3728 12.3637 8.50001H10.3637C10.3637 11.4773 12.7772 13.8909 15.7546 13.8909V11.8909ZM12.3637 8.50001C12.3637 7.87057 12.5342 7.28402 12.831 6.78071L11.1083 5.76476C10.6349 6.56742 10.3637 7.50356 10.3637 8.50001H12.3637ZM6.01818 7.27274H11.9697V5.27274H6.01818V7.27274ZM6 7.29092C6 7.28656 6.00069 7.28493 6.00102 7.28415C6.00163 7.2827 6.00295 7.28043 6.00533 7.27806C6.0077 7.27569 6.00996 7.27437 6.01141 7.27375C6.0122 7.27342 6.01383 7.27274 6.01818 7.27274V5.27274C4.90357 5.27274 4 6.17631 4 7.29092H6ZM6 17.9818V7.29092H4V17.9818H6ZM6.01818 18C6.01383 18 6.0122 17.9993 6.01141 17.999C6.00996 17.9984 6.0077 17.9971 6.00532 17.9947C6.00295 17.9923 6.00163 17.99 6.00102 17.9886C6.00069 17.9878 6 17.9862 6 17.9818H4C4 19.0964 4.90357 20 6.01818 20V18ZM16.7091 18H6.01818V20H16.7091V18ZM16.7273 17.9818C16.7273 17.9862 16.7266 17.9878 16.7263 17.9886C16.7256 17.99 16.7243 17.9923 16.7219 17.9947C16.7196 17.9971 16.7173 17.9984 16.7159 17.999C16.7151 17.9993 16.7134 18 16.7091 18V20C17.8237 20 18.7273 19.0964 18.7273 17.9818H16.7273ZM16.7273 12.4239V17.9818H18.7273V12.4239H16.7273Z" fill="white" mask="url(#path-1-inside-1_201_267)"/>
<circle cx="15.2273" cy="8.5" r="3" stroke="white"/>
</svg>
