<svg width="12" height="15" viewBox="0 0 12 15" fill="none" xmlns="http://www.w3.org/2000/svg">
<path d="M10.5117 2.22461C10.5548 2.23914 10.5724 2.26636 10.5781 2.28613C10.7715 2.95551 11.1584 4.45209 11.2891 6.08984C11.422 7.75694 11.2766 9.42504 10.5449 10.5479C9.96715 11.4344 8.7979 12.3426 7.69434 13.0566C7.15574 13.4051 6.65604 13.693 6.29102 13.8936C6.1811 13.9539 6.08234 14.0043 6 14.0479C5.91766 14.0043 5.8189 13.9539 5.70898 13.8936C5.34396 13.693 4.84426 13.4051 4.30566 13.0566C3.2021 12.3426 2.03285 11.4344 1.45508 10.5479C0.723361 9.42504 0.577997 7.75694 0.710938 6.08984C0.841587 4.45209 1.22851 2.95551 1.42188 2.28613C1.42759 2.26636 1.4452 2.23914 1.48828 2.22461L6 0.703125L10.5117 2.22461Z" stroke="white" stroke-width="1.33333"/>
<path d="M4 8.1333L5.10236 9.01519C5.35758 9.21937 5.72728 9.19127 5.94872 8.95086L8.66667 6" stroke="white" stroke-width="1.03702" stroke-linecap="round"/>
</svg>
