<svg width="15" height="15" viewBox="0 0 15 15" fill="none" xmlns="http://www.w3.org/2000/svg">
<path d="M12.0015 12.8983C11.7531 13.1469 11.3502 13.147 11.1016 12.8986L10.9451 12.7422C10.1432 11.9409 8.77273 12.5088 8.77273 13.6425V13.8636C8.77273 14.2151 8.48782 14.5 8.13636 14.5H6.86364C6.51218 14.5 6.22727 14.2151 6.22727 13.8636V13.648C6.22727 12.5139 4.85596 11.9462 4.05431 12.7483L3.90187 12.9009C3.65344 13.1495 3.25051 13.1496 3.00192 12.9011L2.10168 12.0015C1.85309 11.753 1.85296 11.3501 2.1014 11.1015L2.25769 10.9451C3.05908 10.1432 2.49114 8.77273 1.35746 8.77273H1.13636C0.78491 8.77273 0.5 8.48782 0.5 8.13636V6.86364C0.5 6.51218 0.78491 6.22727 1.13636 6.22727H1.35204C2.48611 6.22727 3.05387 4.85596 2.25171 4.05431L2.09918 3.90187C1.85058 3.65344 1.85046 3.25051 2.09889 3.00192L2.99856 2.10168C3.247 1.85309 3.64992 1.85296 3.89852 2.1014L4.05488 2.25766C4.85677 3.05904 6.22727 2.4911 6.22727 1.35742V1.13636C6.22727 0.78491 6.51218 0.5 6.86364 0.5H8.13636C8.48782 0.5 8.77273 0.78491 8.77273 1.13636V1.35197C8.77273 2.48604 10.144 3.0538 10.9457 2.25164L11.0981 2.09914C11.3465 1.85055 11.7495 1.85042 11.998 2.09886L12.8983 2.99853C13.1469 3.24696 13.147 3.64989 12.8986 3.89848L12.7423 4.05488C11.9409 4.85677 12.5088 6.22727 13.6425 6.22727H13.8636C14.2151 6.22727 14.5 6.51218 14.5 6.86364V8.13636C14.5 8.48782 14.2151 8.77273 13.8636 8.77273H13.6481C12.514 8.77273 11.9462 10.144 12.7484 10.9457L12.9009 11.0981C13.1495 11.3465 13.1496 11.7495 12.9012 11.998" stroke="white"/>
<circle cx="7.50007" cy="7.50004" r="3.31818" stroke="white"/>
</svg>
