<svg width="16" height="16" viewBox="0 0 16 16" fill="none" xmlns="http://www.w3.org/2000/svg">
<path d="M5.49208 9.35951C5.31458 9.57105 5.34217 9.88643 5.55371 10.0639C5.76525 10.2414 6.08063 10.2138 6.25813 10.0023L5.49208 9.35951ZM10.4248 4.80882C10.4007 4.53373 10.1582 4.33023 9.88313 4.3543L5.40025 4.7465C5.12516 4.77057 4.92167 5.01308 4.94573 5.28818C4.9698 5.56327 5.21232 5.76676 5.48741 5.74269L9.47219 5.39407L9.82081 9.37885C9.84488 9.65394 10.0874 9.85744 10.3625 9.83337C10.6376 9.8093 10.8411 9.56679 10.817 9.2917L10.4248 4.80882ZM6.25813 10.0023L10.3097 5.17379L9.54368 4.531L5.49208 9.35951L6.25813 10.0023Z" fill="#12DD00"/>
</svg>
