<svg width="10" height="8" viewBox="0 0 10 8" fill="none" xmlns="http://www.w3.org/2000/svg">
<mask id="path-1-inside-1_804_29" fill="white">
<path d="M-4.95911e-05 6.88598C-4.95911e-05 4.46677 0.385621 3.07134 1.19202 2.26494C1.94934 1.50061 3.02221 1.29024 4.45269 1.2622C4.45269 0.673171 4.32648 0 4.81032 0C5.06276 0 6.9841 1.25518 7.00513 1.21311L9.02465 2.37713C9.25605 2.51738 9.26306 2.86098 9.01763 2.99421L4.98562 5.32226C4.74721 5.4625 4.45269 5.2872 4.45269 5.01372V4.12317C2.59446 4.27043 1.51458 5.58872 0.666109 7.06128C0.483791 7.37683 -4.95911e-05 7.2436 -4.95911e-05 6.88598ZM1.6969 2.76281C1.17099 3.28872 0.862451 4.17927 0.757267 5.61677C1.72495 4.3125 2.99416 3.3939 4.81032 3.3939C5.26611 3.3939 5.16794 3.9689 5.16794 4.39665L8.1341 2.68567L6.64751 1.83018L5.16794 0.967683C5.16794 1.40244 5.26611 1.97744 4.81032 1.97744C3.37983 1.97744 2.34202 2.11768 1.6969 2.76281Z"/>
</mask>
<path d="M1.19202 2.26494L1.90239 2.96879L1.89913 2.97205L1.19202 2.26494ZM4.45269 1.2622H5.45269V2.24278L4.4723 2.262L4.45269 1.2622ZM7.00513 1.21311L6.11071 0.765896L6.58523 -0.183141L7.50451 0.346724L7.00513 1.21311ZM9.02465 2.37713L9.52402 1.51075L9.53355 1.51624L9.54295 1.52194L9.02465 2.37713ZM9.01763 2.99421L8.51761 2.1282L8.52899 2.12163L8.54054 2.11535L9.01763 2.99421ZM4.98562 5.32226L4.47858 4.46029L4.48559 4.45625L4.98562 5.32226ZM4.45269 4.12317L4.3737 3.1263L5.45269 3.04079V4.12317H4.45269ZM0.666109 7.06128L1.53257 7.56053L1.53197 7.56156L0.666109 7.06128ZM0.757267 5.61677L1.56037 6.21262L-0.491347 8.97797L-0.240067 5.54379L0.757267 5.61677ZM5.16794 4.39665L5.6676 5.26287L4.16794 6.12792V4.39665H5.16794ZM8.1341 2.68567L8.63288 1.81894L10.1372 2.68465L8.63376 3.55189L8.1341 2.68567ZM6.64751 1.83018L6.14873 2.69693L6.1439 2.69411L6.64751 1.83018ZM5.16794 0.967683H4.16794V-0.77276L5.67156 0.103756L5.16794 0.967683ZM-1.00005 6.88598C-1.00005 4.42984 -0.624792 2.66754 0.484917 1.55783L1.89913 2.97205C1.39603 3.47514 0.99995 4.5037 0.99995 6.88598H-1.00005ZM0.481666 1.5611C1.53346 0.499568 2.96255 0.291222 4.43309 0.262387L4.4723 2.262C3.08186 2.28927 2.36522 2.50165 1.90238 2.96878L0.481666 1.5611ZM3.45269 1.2622C3.45269 1.13364 3.44616 1.0233 3.44096 0.845749C3.43658 0.69596 3.43314 0.492205 3.45714 0.291494C3.47924 0.106666 3.53815 -0.212886 3.76077 -0.499306C4.03025 -0.845998 4.42166 -1 4.81032 -1V1C4.86635 1 4.96142 0.989923 5.07122 0.939814C5.18494 0.887913 5.27568 0.810656 5.33986 0.728079C5.45007 0.586286 5.44982 0.471841 5.44299 0.528933C5.43807 0.570143 5.43594 0.645122 5.4401 0.787216C5.44345 0.901551 5.45269 1.09624 5.45269 1.2622H3.45269ZM4.81032 -1C4.99188 -1 5.13911 -0.952173 5.18853 -0.935933C5.2611 -0.912084 5.32881 -0.883864 5.38371 -0.859368C5.49478 -0.809811 5.61648 -0.747006 5.73321 -0.683757C5.96967 -0.555629 6.25003 -0.390452 6.50878 -0.235289C6.79106 -0.0660165 7.00151 0.0632325 7.20176 0.182888C7.29484 0.238506 7.35925 0.276038 7.39732 0.29699C7.42031 0.309646 7.41323 0.304884 7.39025 0.294538C7.38631 0.292765 7.33265 0.267796 7.25643 0.247381C7.22731 0.239581 7.11884 0.210627 6.97566 0.214509C6.88294 0.217023 6.36987 0.247579 6.11071 0.765896L7.89956 1.66032C7.63974 2.17996 7.12508 2.21119 7.02988 2.21377C6.88421 2.21772 6.77236 2.18822 6.73898 2.17928C6.65424 2.15658 6.58857 2.12696 6.56934 2.1183C6.51578 2.09419 6.46501 2.06678 6.43296 2.04914C6.36094 2.0095 6.26983 1.95587 6.17588 1.89973C6.00207 1.79588 5.71246 1.61922 5.48022 1.47995C5.22445 1.32658 4.97583 1.18059 4.78038 1.07469C4.68116 1.02092 4.61118 0.985992 4.56877 0.967071C4.54693 0.957327 4.54746 0.958622 4.56414 0.964105C4.57299 0.967011 4.59567 0.974185 4.62855 0.981255C4.6571 0.987394 4.72268 1 4.81032 1V-1ZM7.50451 0.346724L9.52402 1.51075L8.52527 3.24352L6.50576 2.0795L7.50451 0.346724ZM9.54295 1.52194C10.3798 2.02911 10.4742 3.34135 9.49473 3.87306L8.54054 2.11535C8.05194 2.3806 8.13231 3.00564 8.50634 3.23233L9.54295 1.52194ZM9.51766 3.86022L5.48565 6.18827L4.48559 4.45625L8.51761 2.1282L9.51766 3.86022ZM5.49264 6.18419C4.56545 6.7296 3.45269 6.03478 3.45269 5.01372H5.45269C5.45269 4.53961 4.92896 4.1954 4.4786 4.46032L5.49264 6.18419ZM3.45269 5.01372V4.12317H5.45269V5.01372H3.45269ZM4.53169 5.12005C3.19962 5.22561 2.34987 6.14206 1.53257 7.56053L-0.200352 6.56204C0.679295 5.03538 1.9893 3.31525 4.3737 3.1263L4.53169 5.12005ZM1.53197 7.56156C0.837494 8.76354 -1.00005 8.26571 -1.00005 6.88598H0.99995C0.99995 6.22149 0.13009 5.99012 -0.199757 6.561L1.53197 7.56156ZM2.40401 3.46991C2.1401 3.73382 1.85502 4.31741 1.7546 5.68974L-0.240067 5.54379C-0.130116 4.04113 0.201877 2.84362 0.989795 2.0557L2.40401 3.46991ZM-0.0458307 5.02092C1.047 3.54798 2.58432 2.3939 4.81032 2.3939V4.3939C3.40399 4.3939 2.40291 5.07702 1.56037 6.21262L-0.0458307 5.02092ZM4.81032 2.3939C5.15672 2.3939 5.52403 2.51488 5.79957 2.81903C6.04016 3.08459 6.11664 3.38922 6.1468 3.57261C6.17841 3.76482 6.17829 3.9518 6.17599 4.07776C6.17279 4.25285 6.16794 4.28875 6.16794 4.39665H4.16794C4.16794 4.32606 4.16995 4.2566 4.17177 4.1991C4.17374 4.13684 4.17544 4.08953 4.17632 4.04127C4.17717 3.99469 4.17694 3.95989 4.17582 3.93277C4.17468 3.90517 4.17295 3.89499 4.1733 3.89714C4.17352 3.89846 4.17797 3.92653 4.19544 3.97016C4.21343 4.01507 4.2494 4.08679 4.31739 4.16183C4.38881 4.24066 4.47955 4.30522 4.58157 4.34648C4.67972 4.38618 4.76219 4.3939 4.81032 4.3939V2.3939ZM4.66828 3.53043L7.63443 1.81945L8.63376 3.55189L5.6676 5.26287L4.66828 3.53043ZM7.63532 3.5524L6.14873 2.69691L7.14629 0.963454L8.63288 1.81894L7.63532 3.5524ZM6.1439 2.69411L4.66432 1.83161L5.67156 0.103756L7.15113 0.966256L6.1439 2.69411ZM6.16794 0.967683C6.16794 1.07713 6.17282 1.11568 6.17599 1.29078C6.17828 1.41743 6.1784 1.60484 6.14691 1.79716C6.11689 1.98055 6.0407 2.28558 5.80018 2.55154C5.52448 2.8564 5.15677 2.97744 4.81032 2.97744V0.977439C4.76221 0.977439 4.67961 0.985158 4.58131 1.02495C4.47909 1.06633 4.38823 1.13107 4.31679 1.21006C4.2488 1.28525 4.21293 1.35702 4.19506 1.40177C4.1777 1.44524 4.17334 1.47308 4.17319 1.47403C4.17289 1.47582 4.17465 1.46522 4.17581 1.43712C4.17695 1.4095 4.17717 1.37416 4.17632 1.32696C4.17544 1.27808 4.17373 1.23013 4.17176 1.16717C4.16993 1.10893 4.16794 1.03891 4.16794 0.967683H6.16794ZM4.81032 2.97744C3.34397 2.97744 2.72252 3.1514 2.40401 3.46991L0.989795 2.0557C1.96153 1.08397 3.41569 0.977439 4.81032 0.977439V2.97744Z" fill="white" mask="url(#path-1-inside-1_804_29)"/>
</svg>
