<svg width="24" height="24" viewBox="0 0 24 24" fill="none" xmlns="http://www.w3.org/2000/svg">
<path d="M5 7.97296L6.0274 8.66586C6.18306 8.77084 6.36653 8.82692 6.55429 8.82692H13.6154M5 7.97296C5 7.97296 5 8.17488 5 8.82692C5 9.07266 5.32392 9.3801 5.32392 9.76923C5.32392 10.1584 5 10.2947 5 10.7115C5 12.5803 5 15.7416 5 17.3098C5 17.8302 5.42189 18.25 5.94231 18.25H18.0577C18.5781 18.25 19 17.8281 19 17.3077V9.76923C19 9.24881 18.5781 8.82692 18.0577 8.82692H13.6154M5 7.97296C5 6.88332 5.88332 6 6.97296 6H12.6731C13.1935 6 13.6154 6.42189 13.6154 6.94231V8.82692" stroke="white" stroke-width="0.942308"/>
<circle cx="16.7115" cy="13.4039" r="0.942308" fill="white"/>
</svg>
